<?xml version="1.0" encoding="utf-8"?>
<!-- Generator: Adobe Illustrator 23.0.2, SVG Export Plug-In . SVG Version: 6.00 Build 0)  -->
<svg version="1.1" id="Layer_1" xmlns="http://www.w3.org/2000/svg" xmlns:xlink="http://www.w3.org/1999/xlink" x="0px" y="0px"
	 viewBox="0 0 282.9 282.9" style="enable-background:new 0 0 282.9 282.9;" xml:space="preserve">
<style type="text/css">
	.st0{fill:#231F20;}
</style>
<title>clock_ring</title>
<g>
	<circle class="st0" cx="127.3" cy="6.8" r="2.1"/>
	<circle class="st0" cx="113.3" cy="9" r="2.1"/>
	<circle class="st0" cx="99.6" cy="12.7" r="2.1"/>
	<circle class="st0" cx="86.4" cy="17.7" r="2.1"/>
	<circle class="st0" cx="61.8" cy="31.9" r="2.1"/>
	<circle class="st0" cx="50.8" cy="40.8" r="2.1"/>
	<circle class="st0" cx="40.8" cy="50.8" r="2.1"/>
	<circle class="st0" cx="31.9" cy="61.8" r="2.1"/>
	<circle class="st0" cx="17.7" cy="86.4" r="2.1"/>
	<circle class="st0" cx="12.7" cy="99.6" r="2.1"/>
	<circle class="st0" cx="9" cy="113.3" r="2.1"/>
	<circle class="st0" cx="6.8" cy="127.3" r="2.1"/>
	<circle class="st0" cx="6.8" cy="155.6" r="2.1"/>
	<circle class="st0" cx="9" cy="169.6" r="2.1"/>
	<circle class="st0" cx="12.7" cy="183.3" r="2.1"/>
	<circle class="st0" cx="17.7" cy="196.5" r="2.1"/>
	<circle class="st0" cx="31.9" cy="221" r="2.1"/>
	<circle class="st0" cx="40.8" cy="232" r="2.1"/>
	<circle class="st0" cx="50.8" cy="242" r="2.1"/>
	<circle class="st0" cx="61.8" cy="251" r="2.1"/>
	<circle class="st0" cx="86.4" cy="265.1" r="2.1"/>
	<circle class="st0" cx="99.6" cy="270.2" r="2.1"/>
	<circle class="st0" cx="113.3" cy="273.9" r="2.1"/>
	<circle class="st0" cx="127.3" cy="276.1" r="2.1"/>
	<circle class="st0" cx="155.6" cy="276.1" r="2.1"/>
	<circle class="st0" cx="169.6" cy="273.9" r="2.1"/>
	<circle class="st0" cx="183.3" cy="270.2" r="2.1"/>
	<circle class="st0" cx="196.5" cy="265.1" r="2.1"/>
	<circle class="st0" cx="221" cy="251" r="2.1"/>
	<circle class="st0" cx="232" cy="242" r="2.1"/>
	<circle class="st0" cx="242" cy="232" r="2.1"/>
	<circle class="st0" cx="251" cy="221" r="2.1"/>
	<circle class="st0" cx="265.1" cy="196.5" r="2.1"/>
	<circle class="st0" cx="270.2" cy="183.3" r="2.1"/>
	<circle class="st0" cx="273.9" cy="169.6" r="2.1"/>
	<circle class="st0" cx="276.1" cy="155.6" r="2.1"/>
	<circle class="st0" cx="276.1" cy="127.3" r="2.1"/>
	<circle class="st0" cx="273.9" cy="113.3" r="2.1"/>
	<circle class="st0" cx="270.2" cy="99.6" r="2.1"/>
	<circle class="st0" cx="265.1" cy="86.4" r="2.1"/>
	<circle class="st0" cx="251" cy="61.8" r="2.1"/>
	<circle class="st0" cx="242" cy="50.8" r="2.1"/>
	<circle class="st0" cx="232" cy="40.8" r="2.1"/>
	<circle class="st0" cx="221" cy="31.9" r="2.1"/>
	<circle class="st0" cx="196.5" cy="17.7" r="2.1"/>
	<circle class="st0" cx="183.3" cy="12.7" r="2.1"/>
	<circle class="st0" cx="169.6" cy="9" r="2.1"/>
	<circle class="st0" cx="155.6" cy="6.8" r="2.1"/>
</g>
<circle class="st0" cx="141.4" cy="6" r="4.8"/>
<circle class="st0" cx="73.7" cy="24.2" r="4.8"/>
<circle class="st0" cx="24.2" cy="73.7" r="4.8"/>
<circle class="st0" cx="6" cy="141.4" r="4.8"/>
<circle class="st0" cx="24.2" cy="209.1" r="4.8"/>
<circle class="st0" cx="73.7" cy="258.7" r="4.8"/>
<circle class="st0" cx="141.4" cy="276.8" r="4.8"/>
<circle class="st0" cx="209.1" cy="258.7" r="4.8"/>
<circle class="st0" cx="258.7" cy="209.1" r="4.8"/>
<circle class="st0" cx="276.8" cy="141.4" r="4.8"/>
<circle class="st0" cx="258.7" cy="73.7" r="4.8"/>
<circle class="st0" cx="209.1" cy="24.2" r="4.8"/>
</svg>
