<svg xmlns="http://www.w3.org/2000/svg" viewBox="0 0 980 980"><title>color_icon</title><g id="Layer_2" data-name="Layer 2"><g id="Layer_1-2" data-name="Layer 1"><path d="M490,0C220.5,0,0,220.5,0,490S220.5,980,490,980c46.3,0,81.7-35.4,81.7-81.7,0-21.8-8.2-40.8-21.8-54.4s-21.8-32.7-21.8-54.4c0-46.3,35.4-81.7,81.7-81.7h98C857.5,707.8,980,585.3,980,435.6,980,196,759.5,0,490,0ZM190.6,490c-46.3,0-81.7-35.4-81.7-81.7s35.4-81.7,81.7-81.7,81.7,35.4,81.7,81.7S236.8,490,190.6,490ZM353.9,272.2c-46.3,0-81.7-35.4-81.7-81.7s35.4-81.7,81.7-81.7,81.7,35.4,81.7,81.7S400.2,272.2,353.9,272.2Zm272.2,0c-46.3,0-81.7-35.4-81.7-81.7s35.4-81.7,81.7-81.7,81.7,35.4,81.7,81.7S672.4,272.2,626.1,272.2ZM789.4,490c-46.3,0-81.7-35.4-81.7-81.7s35.4-81.7,81.7-81.7,81.7,35.4,81.7,81.7S835.7,490,789.4,490Z"/></g></g></svg>